<svg xmlns="http://www.w3.org/2000/svg" width="24" height="24" viewBox="0 0 24 24" stroke="currentColor" stroke-width="2" stroke-linecap="round" stroke-linejoin="round" class="lucide lucide-swatch-book">
  <!-- Definir el gradiente -->
  <defs>
    <linearGradient id="tripleGradient" x1="0%" y1="0%" x2="0%" y2="100%">
      <stop offset="0%" style="stop-color:#542a74"/>
      <stop offset="50%" style="stop-color:#c14858"/>
      <stop offset="100%" style="stop-color:#d1a342"/>
    </linearGradient>
  </defs>
  
  <!-- Paths con el gradiente aplicado -->
  <path d="M11 17a4 4 0 0 1-8 0V5a2 2 0 0 1 2-2h4a2 2 0 0 1 2 2Z" fill="url(#tripleGradient)"/>
  <path d="M16.7 13H19a2 2 0 0 1 2 2v4a2 2 0 0 1-2 2H7" fill="url(#tripleGradient)"/>
  <path d="M 7 17h.01" fill="url(#tripleGradient)"/>
  <path d="m11 8 2.3-2.3a2.4 2.4 0 0 1 3.404.004L18.6 7.6a2.4 2.4 0 0 1 .026 3.434L9.9 19.8" fill="url(#tripleGradient)"/>
</svg>